<?xml version="1.0" encoding="UTF-8"?>
<!DOCTYPE svg PUBLIC "-//W3C//DTD SVG 1.1//EN" "http://www.w3.org/Graphics/SVG/1.1/DTD/svg11.dtd">
<!-- Creator: CorelDRAW X7 -->
<svg xmlns="http://www.w3.org/2000/svg" xml:space="preserve" width="200mm" height="200mm" version="1.1" style="shape-rendering:geometricPrecision; text-rendering:geometricPrecision; image-rendering:optimizeQuality; fill-rule:evenodd; clip-rule:evenodd"
viewBox="0 0 20000 20000"
 xmlns:xlink="http://www.w3.org/1999/xlink">
 <defs>
  <style type="text/css">
   <![CDATA[
    .fil0 {fill:#2B2A29}
    .fil1 {fill:#2B2A29;fill-rule:nonzero}
   ]]>
  </style>
 </defs>
 <g id="Layer_x0020_1">
  <metadata id="CorelCorpID_0Corel-Layer"/>
  <path class="fil0" d="M5773 5100l984 0c-72,-61 -93,-167 -44,-251l237 -411c55,-95 176,-127 271,-73l1272 735 171 0 0 -300c0,-37 30,-70 67,-75l238 -28c24,-91 60,-177 106,-257l-148 -188c-23,-29 -20,-74 5,-100l11 -10 -900 -1044c27,-29 56,-57 84,-85l1044 901 7 -8c26,-26 71,-28 100,-6l189 148c79,-45 165,-81 256,-105l28 -239c5,-36 38,-66 75,-66l348 0c36,0 70,30 74,66l29 239c91,24 177,59 256,105l189 -148c29,-23 74,-20 100,6l14 14 1044 -900c29,28 57,57 85,86l-900 1043 2 3c27,26 29,71 6,100l-148 188c46,80 82,166 106,257l239 28c36,5 66,38 66,75l0 300 211 0 1272 -735c94,-54 215,-22 270,73l237 411c49,84 28,190 -44,251l945 0c267,0 486,218 486,486l0 944 256 0c124,0 224,101 224,224l0 1996c0,123 -100,224 -224,224l-256 0 0 944c0,268 -219,486 -486,486l-1286 0c-43,96 -90,191 -143,282l-57 99 543 690c19,25 17,71 -5,93l-782 783c-21,20 -70,24 -93,6l-691 -544 -99 58c-243,140 -503,247 -775,320l-112 30 -104 873c-5,31 -39,61 -70,61l-1106 0c-31,0 -66,-30 -69,-61l-105 -874 -112 -29c-271,-72 -532,-180 -775,-321l-99 -57 -692 544c-23,18 -72,15 -92,-6l-782 -782c-22,-22 -24,-69 -6,-93l543 -691 -58 -100c-52,-90 -99,-184 -142,-281l-1285 0c-267,0 -486,-218 -486,-486l0 -944 -256 0c-124,0 -224,-101 -224,-224l0 -1996c0,-123 100,-224 224,-224l256 0 0 -944c0,-268 219,-486 486,-486zm6094 5304l-3735 0c417,583 1098,965 1868,965 769,0 1450,-382 1867,-965zm-3263 -2722c0,-235 -190,-425 -424,-425 -235,0 -425,190 -425,425 0,234 190,425 425,425 234,0 424,-191 424,-425zm3642 0c0,-235 -190,-425 -425,-425 -234,0 -425,190 -425,425 0,234 191,425 425,425 235,0 425,-191 425,-425zm-2822 162c0,34 -28,65 -62,69l-222 27c-23,84 -56,164 -99,238l138 176c21,27 18,69 -6,93l-228 229c-25,24 -67,26 -93,6l-176 -139c-74,44 -154,76 -239,99l-26 223c-4,34 -36,61 -70,61l-324 0c-34,0 -65,-27 -69,-61l-27 -223c-85,-23 -164,-56 -239,-99l-175 138c-28,22 -69,19 -93,-5l-229 -229c-24,-24 -27,-65 -5,-93l138 -175c-43,-74 -76,-155 -99,-239l-223 -27c-34,-4 -61,-35 -61,-69l0 -324c0,-34 27,-65 61,-70l222 -26c23,-85 56,-165 99,-240l-138 -175c-21,-28 -19,-69 6,-93l228 -229c24,-25 66,-27 93,-6l176 138c74,-42 154,-76 238,-99l27 -222c4,-34 36,-62 70,-62l324 0c34,0 65,28 69,62l27 222c84,23 164,56 238,99l176 -139c27,-21 69,-18 93,6l228 229c25,24 27,65 6,93l-138 175c43,74 76,154 99,239l222 27c34,4 62,35 62,69l0 325 1 0 0 1zm-623 -162c0,-344 -278,-622 -621,-622 -344,0 -622,278 -622,622 0,343 278,622 622,622 343,0 621,-279 621,-622zm4264 162c0,34 -27,65 -61,69l-223 27c-22,84 -55,164 -99,238l139 176c21,27 18,69 -6,93l-229 229c-24,24 -66,26 -93,6l-175 -139c-74,44 -154,76 -239,99l-27 223c-4,34 -35,61 -69,61l-324 0c-34,0 -66,-27 -70,-61l-26 -223c-85,-23 -165,-56 -239,-99l-176 138c-27,22 -69,19 -92,-5l-229 -229c-24,-24 -27,-65 -6,-93l138 -175c-42,-74 -76,-155 -98,-239l-223 -27c-34,-4 -61,-35 -61,-69l0 -324c0,-34 27,-65 61,-70l222 -26c23,-85 56,-165 99,-240l-138 -175c-21,-28 -19,-69 5,-93l229 -229c24,-25 66,-27 93,-6l176 138c73,-42 154,-76 238,-99l27 -222c4,-34 35,-62 69,-62l324 0c34,0 66,28 70,62l27 222c84,23 164,56 238,99l176 -139c27,-21 68,-18 92,6l229 229c24,24 27,65 6,93l-138 175c43,74 76,154 98,239l223 27c34,4 61,35 61,69l0 325 1 0 0 1zm-622 -162c0,-344 -278,-622 -622,-622 -343,0 -622,278 -622,622 0,343 279,622 622,622 344,0 622,-279 622,-622z"/>
  <g id="_1365800704">
  </g>
  <g id="_1365799072">
  </g>
  <g id="_1365808544">
  </g>
  <g id="_1365801920">
  </g>
  <g id="_1365808704">
  </g>
  <g id="_1365810592">
  </g>
  <g id="_1365808608">
  </g>
  <g id="_1365812320">
  </g>
  <g id="_1365798304">
  </g>
  <g id="_1365797280">
  </g>
  <g id="_1365809088">
  </g>
  <g id="_1365799872">
  </g>
  <g id="_1365812480">
  </g>
  <g id="_1365809152">
  </g>
  <g id="_1365812448">
  </g>
  <path class="fil1" d="M4763 15958l-428 0 0 -744 -1917 0 0 744 -428 0 0 -1849 428 0 0 745 1917 0 0 -745 428 0 0 1849zm3163 -371c0,104 -37,192 -109,264 -73,71 -160,107 -262,107l-1920 0c-102,0 -189,-36 -261,-107 -72,-72 -107,-160 -107,-264l0 -1478 427 0 0 1410c0,23 8,42 23,57 15,15 34,23 57,23l1642 0c23,0 42,-8 58,-23 16,-15 24,-34 24,-57l0 -1410 428 0 0 1478zm3404 371l-428 0 0 -130c0,-410 -181,-614 -544,-614l-1503 0 0 744 -428 0 0 -1849 2495 0c104,0 191,36 263,108 72,71 108,159 108,263l0 363c0,69 -22,132 -64,186 -42,55 -97,94 -163,117 91,64 157,150 200,259 42,108 64,236 64,383l0 170zm-465 -1183l0 -227c0,-23 -7,-42 -23,-58 -15,-16 -34,-24 -59,-24l-1928 0 0 388 1928 0c25,0 44,-8 59,-23 16,-15 23,-34 23,-56zm3820 812c0,104 -36,192 -107,264 -72,71 -159,107 -261,107l-2520 0 0 -1849 2520 0c102,0 189,36 261,108 71,71 107,159 107,263l0 312c0,60 -11,110 -34,150 -22,39 -55,70 -99,90 44,23 77,54 99,94 23,39 34,89 34,150l0 311zm-427 -812l0 -227c0,-23 -8,-42 -23,-58 -15,-16 -34,-24 -57,-24l-1954 0 0 388 1954 0c23,0 42,-8 57,-23 15,-15 23,-34 23,-56zm0 744l0 -226c0,-23 -8,-42 -23,-57 -15,-15 -34,-22 -57,-22l-1954 0 0 385 1954 0c23,0 42,-8 57,-23 15,-15 23,-34 23,-57zm3752 439l-428 0 0 -744 -1976 0 0 744 -428 0 0 -1478c0,-104 36,-192 108,-263 71,-72 158,-108 260,-108l2093 0c102,0 189,36 262,108 72,71 109,159 109,263l0 1478zm-428 -1104l0 -306c0,-23 -8,-42 -24,-58 -16,-16 -35,-24 -58,-24l-1815 0c-23,0 -42,8 -57,24 -15,16 -22,35 -22,58l0 306 1976 0z"/>
  <g id="_1365807168">
   <path class="fil1" d="M2529 17212l-45 0 0 -299 -389 0 0 299 -46 0 0 -623 46 0 0 290 389 0 0 -290 45 0 0 623zm254 -438l0 280c0,41 10,74 28,97 19,23 48,35 86,35 28,0 55,-7 79,-22 25,-14 47,-34 67,-60l0 -330 42 0 0 438 -23 0c-9,0 -13,-4 -13,-12l-4 -65c-20,25 -44,46 -70,61 -27,15 -56,23 -89,23 -24,0 -45,-4 -63,-12 -19,-7 -34,-18 -46,-33 -12,-14 -21,-32 -27,-52 -6,-20 -9,-43 -9,-68l0 -280 42 0zm503 438l0 -438 23 0c8,0 13,3 14,11l3 66c20,-26 43,-46 70,-61 26,-16 56,-23 88,-23 24,0 45,3 64,11 18,8 33,19 45,33 12,14 21,32 27,52 7,20 10,43 10,69l0 280 -42 0 0 -281c0,-41 -10,-73 -28,-97 -19,-23 -48,-35 -86,-35 -29,0 -56,8 -80,22 -25,15 -47,36 -66,61l0 330 -42 0zm678 -445c19,0 37,2 53,7 16,4 31,11 44,19l112 0 0 15c0,7 -4,11 -12,12l-67 5c9,11 15,23 19,37 5,14 7,29 7,45 0,21 -4,40 -11,58 -8,17 -19,31 -32,44 -14,12 -30,21 -49,28 -19,7 -40,10 -63,10 -25,0 -48,-4 -69,-11 -12,7 -21,15 -28,25 -7,9 -11,19 -11,28 0,13 4,22 13,29 9,7 21,12 35,15 15,3 31,5 50,6 18,1 37,1 56,2 20,1 39,3 57,6 19,3 35,7 50,14 14,6 26,16 35,27 8,12 13,28 13,48 0,18 -5,35 -14,52 -9,17 -22,32 -39,45 -17,12 -38,23 -62,31 -25,7 -52,11 -82,11 -31,0 -58,-3 -81,-9 -23,-7 -43,-15 -58,-26 -16,-10 -28,-23 -36,-37 -8,-14 -12,-29 -12,-45 0,-23 8,-43 23,-60 15,-16 36,-29 63,-38 -15,-5 -26,-13 -35,-22 -9,-9 -13,-22 -13,-39 0,-6 1,-13 4,-19 2,-7 5,-14 10,-21 5,-6 11,-12 17,-18 7,-6 14,-11 23,-16 -21,-12 -37,-28 -49,-48 -11,-20 -17,-43 -17,-70 0,-21 3,-40 11,-57 7,-18 18,-32 32,-45 13,-12 30,-22 49,-28 19,-7 41,-10 64,-10zm163 474c0,-14 -3,-25 -11,-33 -7,-9 -16,-15 -29,-20 -11,-4 -25,-8 -41,-10 -16,-2 -32,-3 -49,-4 -17,-1 -34,-2 -52,-2 -17,-1 -33,-3 -48,-6 -11,5 -22,10 -31,15 -10,6 -18,13 -24,20 -7,7 -12,15 -16,24 -4,8 -6,18 -6,28 0,13 3,25 10,36 6,11 16,20 29,28 13,8 28,15 47,20 18,4 39,7 63,7 23,0 43,-3 62,-8 20,-5 36,-12 51,-21 14,-9 25,-20 33,-33 8,-12 12,-26 12,-41zm-163 -223c19,0 36,-3 50,-8 15,-6 27,-13 37,-23 10,-9 18,-21 23,-34 5,-14 7,-29 7,-45 0,-17 -2,-32 -8,-45 -5,-14 -12,-26 -23,-35 -10,-10 -22,-17 -37,-23 -14,-5 -30,-8 -49,-8 -18,0 -35,3 -50,8 -14,6 -26,13 -37,23 -10,9 -17,21 -23,35 -5,13 -8,28 -8,45 0,16 3,31 8,45 6,13 13,25 23,34 11,10 23,17 37,23 15,5 32,8 50,8zm638 194c-9,0 -15,-4 -17,-13l-6 -56c-12,12 -24,23 -36,32 -12,10 -24,17 -37,24 -13,6 -27,11 -42,15 -14,3 -31,5 -49,5 -15,0 -29,-3 -43,-7 -14,-4 -27,-11 -37,-20 -11,-9 -20,-21 -27,-35 -6,-14 -10,-31 -10,-51 0,-18 6,-35 16,-51 11,-16 27,-30 50,-41 22,-12 51,-21 86,-28 36,-7 78,-12 127,-13l0 -46c0,-40 -8,-71 -26,-93 -17,-22 -43,-33 -77,-33 -21,0 -39,3 -54,9 -14,5 -27,12 -37,19 -10,7 -19,13 -25,19 -7,6 -12,9 -16,9 -6,0 -11,-3 -14,-8l-7 -13c23,-22 47,-40 72,-52 25,-12 54,-17 86,-17 23,0 44,3 61,11 18,7 32,18 44,32 11,14 20,31 26,50 6,20 9,42 9,67l0 285 -17 0zm-176 -24c17,0 32,-2 47,-6 14,-3 27,-8 39,-15 12,-7 24,-14 34,-23 11,-9 21,-19 31,-30l0 -113c-41,1 -77,4 -107,9 -30,5 -55,12 -74,21 -20,9 -34,19 -43,31 -9,12 -14,26 -14,42 0,14 2,27 7,38 5,10 11,19 19,26 8,7 17,12 28,15 10,3 21,5 33,5zm383 24l0 -438 22 0c5,0 9,1 11,3 2,2 3,5 4,10l3 93c14,-36 33,-64 56,-84 24,-20 53,-29 87,-29 13,0 25,1 37,4 11,3 21,7 31,12l-6 29c0,5 -3,7 -8,7 -2,0 -5,0 -8,-1 -3,-2 -7,-3 -12,-4 -5,-2 -11,-3 -18,-4 -7,-2 -15,-2 -24,-2 -33,0 -60,10 -81,31 -22,20 -39,50 -52,88l0 285 -42 0zm462 -438l0 438 -42 0 0 -438 42 0zm18 -151c0,5 -1,10 -3,14 -2,5 -5,9 -9,13 -3,3 -7,6 -12,8 -5,2 -10,3 -15,3 -5,0 -10,-1 -15,-3 -5,-2 -9,-5 -13,-8 -3,-4 -6,-8 -8,-13 -2,-4 -3,-9 -3,-14 0,-6 1,-11 3,-16 2,-4 5,-8 8,-12 4,-4 8,-6 13,-8 5,-2 10,-3 15,-3 5,0 10,1 15,3 5,2 9,4 12,8 4,4 7,8 9,12 2,5 3,10 3,16zm474 589c-9,0 -14,-4 -16,-13l-7 -56c-12,12 -24,23 -35,32 -12,10 -25,17 -37,24 -13,6 -27,11 -42,15 -15,3 -31,5 -49,5 -15,0 -30,-3 -44,-7 -14,-4 -26,-11 -37,-20 -11,-9 -20,-21 -26,-35 -7,-14 -10,-31 -10,-51 0,-18 5,-35 16,-51 10,-16 27,-30 49,-41 22,-12 51,-21 87,-28 35,-7 77,-12 127,-13l0 -46c0,-40 -9,-71 -26,-93 -18,-22 -44,-33 -78,-33 -21,0 -39,3 -53,9 -15,5 -28,12 -38,19 -10,7 -19,13 -25,19 -6,6 -12,9 -16,9 -6,0 -10,-3 -13,-8l-8 -13c23,-22 47,-40 72,-52 25,-12 54,-17 86,-17 23,0 44,3 61,11 18,7 33,18 44,32 12,14 20,31 26,50 6,20 9,42 9,67l0 285 -17 0zm-176 -24c17,0 33,-2 47,-6 14,-3 27,-8 39,-15 13,-7 24,-14 34,-23 11,-9 21,-19 32,-30l0 -113c-42,1 -78,4 -108,9 -30,5 -54,12 -74,21 -19,9 -34,19 -43,31 -9,12 -14,26 -14,42 0,14 3,27 7,38 5,10 12,19 20,26 8,7 17,12 27,15 11,3 22,5 33,5zm383 24l0 -438 23 0c8,0 13,3 14,11l3 66c20,-26 43,-46 70,-61 27,-16 56,-23 88,-23 24,0 46,3 64,11 18,8 33,19 45,33 12,14 21,32 28,52 6,20 9,43 9,69l0 280 -42 0 0 -281c0,-41 -10,-73 -28,-97 -19,-23 -48,-35 -86,-35 -29,0 -56,8 -80,22 -25,15 -47,36 -66,61l0 330 -42 0zm783 -282l0 282 -45 0 0 -623 159 0c72,0 126,14 161,41 35,28 53,69 53,123 0,23 -4,45 -12,65 -8,19 -20,37 -35,51 -16,15 -34,27 -56,37 -22,9 -46,16 -74,19 7,4 14,10 19,17l215 270 -39 0c-5,0 -9,-1 -12,-3 -4,-2 -7,-5 -10,-9l-200 -252c-5,-7 -10,-11 -16,-14 -6,-3 -14,-4 -26,-4l-82 0zm0 -32l108 0c28,0 53,-4 75,-10 21,-7 40,-17 55,-29 15,-12 26,-27 34,-44 8,-18 12,-37 12,-59 0,-44 -14,-77 -43,-99 -29,-21 -72,-32 -127,-32l-114 0 0 273zm701 -131c32,0 60,5 84,16 25,10 46,26 63,45 17,20 30,44 39,71 9,28 13,59 13,94 0,34 -4,65 -13,93 -9,27 -22,51 -39,71 -17,19 -38,34 -63,45 -24,11 -52,16 -84,16 -31,0 -59,-5 -84,-16 -25,-11 -45,-26 -63,-45 -17,-20 -30,-44 -39,-71 -9,-28 -13,-59 -13,-93 0,-35 4,-66 13,-94 9,-27 22,-51 39,-71 18,-19 38,-35 63,-45 25,-11 53,-16 84,-16zm0 418c26,0 49,-4 69,-13 20,-9 36,-22 49,-39 13,-17 23,-37 29,-61 7,-23 10,-50 10,-79 0,-30 -3,-56 -10,-80 -6,-24 -16,-44 -29,-61 -13,-17 -29,-30 -49,-39 -20,-9 -43,-14 -69,-14 -26,0 -49,5 -68,14 -20,9 -36,22 -49,39 -14,17 -23,37 -30,61 -7,24 -10,50 -10,80 0,29 3,56 10,79 7,24 16,44 30,61 13,17 29,30 49,39 19,9 42,13 68,13zm372 27l0 -641 42 0 0 279c20,-26 42,-46 67,-61 26,-15 55,-22 87,-22 53,0 95,18 125,55 30,37 45,93 45,168 0,32 -4,62 -12,90 -9,27 -21,51 -37,72 -16,20 -36,36 -60,48 -23,12 -51,18 -81,18 -31,0 -57,-6 -79,-18 -22,-12 -41,-30 -56,-53l-3 54c-1,7 -5,11 -12,11l-26 0zm184 -413c-29,0 -55,8 -79,23 -23,15 -44,36 -63,62l0 233c17,25 36,43 56,53 20,10 43,15 70,15 26,0 48,-4 68,-14 19,-9 35,-23 48,-40 13,-17 23,-38 30,-62 6,-24 10,-50 10,-79 0,-66 -12,-114 -36,-145 -24,-31 -59,-46 -104,-46zm517 -32c32,0 60,5 84,16 25,10 46,26 63,45 17,20 30,44 39,71 9,28 13,59 13,94 0,34 -4,65 -13,93 -9,27 -22,51 -39,71 -17,19 -38,34 -63,45 -24,11 -52,16 -84,16 -31,0 -59,-5 -84,-16 -25,-11 -46,-26 -63,-45 -17,-20 -30,-44 -39,-71 -9,-28 -13,-59 -13,-93 0,-35 4,-66 13,-94 9,-27 22,-51 39,-71 17,-19 38,-35 63,-45 25,-11 53,-16 84,-16zm0 418c26,0 49,-4 69,-13 20,-9 36,-22 49,-39 13,-17 23,-37 29,-61 7,-23 10,-50 10,-79 0,-30 -3,-56 -10,-80 -6,-24 -16,-44 -29,-61 -13,-17 -29,-30 -49,-39 -20,-9 -43,-14 -69,-14 -26,0 -49,5 -68,14 -20,9 -36,22 -49,39 -14,17 -23,37 -30,61 -7,24 -10,50 -10,80 0,29 3,56 10,79 7,24 16,44 30,61 13,17 29,30 49,39 19,9 42,13 68,13zm487 34c-29,0 -52,-9 -69,-25 -16,-16 -25,-42 -25,-76l0 -299 -63 0c-3,0 -6,-1 -8,-2 -2,-2 -3,-5 -3,-8l0 -17 75 -5 11 -156c0,-3 1,-5 3,-7 2,-2 4,-4 8,-4l19 0 0 168 138 0 0 31 -138 0 0 297c0,12 2,22 5,31 3,8 7,16 13,21 5,6 12,10 19,12 7,3 15,4 24,4 10,0 19,-1 27,-4 8,-3 14,-7 20,-10 5,-4 10,-7 13,-11 4,-3 7,-4 9,-4 2,0 4,1 7,4l11 19c-11,12 -25,22 -42,29 -17,8 -35,12 -54,12zm444 -7l0 -623 179 0c35,0 66,3 92,10 26,7 47,18 64,31 17,14 30,31 38,50 9,20 13,42 13,67 0,17 -3,33 -9,48 -5,15 -14,29 -25,42 -11,13 -24,24 -39,34 -16,9 -34,16 -54,21 49,8 86,24 113,49 26,26 39,59 39,100 0,27 -4,50 -14,72 -9,21 -23,39 -41,53 -18,15 -40,26 -66,34 -26,8 -55,12 -89,12l-201 0zm44 -299l0 263 157 0c54,0 96,-12 124,-36 27,-24 41,-57 41,-99 0,-20 -3,-38 -11,-54 -7,-15 -18,-29 -32,-40 -14,-11 -32,-19 -52,-25 -21,-6 -44,-9 -70,-9l-157 0zm0 -32l135 0c29,0 54,-4 74,-11 20,-7 37,-17 50,-29 13,-12 22,-26 29,-41 6,-15 9,-31 9,-47 0,-42 -13,-74 -40,-96 -26,-21 -67,-32 -123,-32l-134 0 0 256zm588 -107l0 280c0,41 10,74 29,97 18,23 47,35 85,35 28,0 55,-7 80,-22 24,-14 46,-34 66,-60l0 -330 42 0 0 438 -23 0c-8,0 -13,-4 -13,-12l-4 -65c-20,25 -43,46 -70,61 -27,15 -56,23 -88,23 -25,0 -46,-4 -64,-12 -18,-7 -33,-18 -45,-33 -12,-14 -21,-32 -28,-52 -6,-20 -9,-43 -9,-68l0 -280 42 0zm558 0l0 438 -43 0 0 -438 43 0zm18 -151c0,5 -1,10 -3,14 -3,5 -5,9 -9,13 -4,3 -8,6 -12,8 -5,2 -10,3 -15,3 -6,0 -11,-1 -15,-3 -5,-2 -9,-5 -13,-8 -3,-4 -6,-8 -8,-13 -2,-4 -3,-9 -3,-14 0,-6 1,-11 3,-16 2,-4 5,-8 8,-12 4,-4 8,-6 13,-8 4,-2 9,-3 15,-3 5,0 10,1 15,3 4,2 8,4 12,8 4,4 6,8 9,12 2,5 3,10 3,16zm249 -51l0 640 -42 0 0 -640 42 0zm523 640c-8,0 -12,-4 -13,-12l-4 -69c-20,27 -42,48 -68,63 -26,16 -55,24 -88,24 -53,0 -95,-19 -125,-56 -30,-37 -45,-93 -45,-168 0,-32 4,-62 13,-90 8,-27 20,-51 36,-72 17,-20 37,-36 60,-48 24,-12 51,-17 82,-17 29,0 55,5 77,16 21,11 40,27 56,48l0 -259 42 0 0 640 -23 0zm-161 -29c29,0 55,-7 79,-22 23,-15 44,-36 63,-63l0 -231c-17,-25 -36,-42 -56,-53 -21,-10 -44,-15 -70,-15 -26,0 -48,5 -68,14 -19,10 -35,23 -48,40 -13,17 -23,38 -30,62 -6,24 -10,50 -10,79 0,65 12,113 36,143 25,31 59,46 104,46zm554 -416c25,0 48,4 69,12 21,9 39,21 54,38 16,16 28,36 36,60 9,24 13,51 13,82 0,7 -1,11 -3,13 -1,3 -5,4 -9,4l-315 0 0 8c0,33 4,62 11,87 8,25 19,46 33,63 14,17 31,30 51,38 20,9 42,13 67,13 22,0 41,-2 57,-7 16,-5 30,-10 41,-16 11,-6 19,-12 26,-17 6,-4 11,-7 14,-7 4,0 7,2 9,5l11 14c-7,8 -16,17 -28,24 -11,8 -24,14 -38,19 -15,6 -30,10 -46,13 -16,3 -33,5 -49,5 -30,0 -57,-5 -82,-16 -25,-10 -46,-26 -64,-45 -17,-20 -31,-45 -41,-74 -9,-29 -14,-62 -14,-99 0,-32 4,-61 13,-87 9,-27 22,-50 39,-69 17,-19 37,-34 62,-45 24,-11 52,-16 83,-16zm1 31c-22,0 -43,4 -60,11 -18,7 -34,17 -47,30 -13,13 -23,29 -31,48 -8,18 -14,39 -16,62l287 0c0,-24 -3,-45 -9,-64 -7,-18 -16,-34 -27,-47 -12,-13 -26,-23 -42,-30 -17,-6 -35,-10 -55,-10zm342 414l0 -438 22 0c5,0 9,1 11,3 3,2 4,5 4,10l4 93c14,-36 33,-64 56,-84 23,-20 52,-29 87,-29 13,0 25,1 36,4 11,3 22,7 32,12l-6 29c-1,5 -4,7 -9,7 -1,0 -4,0 -7,-1 -3,-2 -7,-3 -12,-4 -5,-2 -11,-3 -18,-4 -7,-2 -15,-2 -24,-2 -33,0 -61,10 -82,31 -21,20 -38,50 -52,88l0 285 -42 0z"/>
   <path class="fil1" d="M12823 16829c-2,4 -5,6 -9,6 -4,0 -8,-2 -13,-6 -5,-4 -12,-8 -20,-12 -8,-5 -19,-9 -31,-13 -12,-3 -27,-5 -45,-5 -15,0 -30,2 -43,7 -13,4 -24,11 -33,18 -9,8 -17,17 -22,27 -5,10 -8,20 -8,31 0,14 4,26 11,35 7,9 16,17 28,23 11,6 24,12 38,17 15,4 30,9 45,14 15,4 30,9 44,15 15,6 28,13 39,22 12,8 21,18 28,31 7,12 10,27 10,45 0,19 -3,36 -10,53 -7,16 -17,31 -30,43 -13,12 -29,21 -48,28 -19,7 -40,11 -65,11 -30,0 -57,-5 -79,-15 -22,-10 -42,-23 -59,-39l10 -15c1,-2 3,-4 5,-5 1,-1 4,-2 7,-2 4,0 8,3 14,7 5,5 13,10 22,16 8,5 19,10 33,15 13,5 29,7 49,7 18,0 34,-3 48,-8 14,-5 26,-12 35,-21 10,-9 17,-19 21,-31 5,-12 8,-24 8,-38 0,-14 -4,-26 -11,-36 -7,-10 -16,-18 -27,-25 -12,-6 -25,-12 -39,-17 -15,-5 -30,-9 -45,-14 -15,-5 -30,-10 -44,-16 -15,-5 -28,-12 -39,-21 -11,-8 -21,-19 -28,-31 -7,-12 -10,-27 -10,-45 0,-16 3,-31 10,-45 7,-14 16,-27 29,-38 12,-11 27,-19 45,-26 18,-6 38,-9 61,-9 26,0 50,3 71,11 20,8 39,20 57,36l-10 15zm855 383l-35 0c-4,0 -7,-2 -10,-4 -3,-2 -5,-5 -6,-8l-74 -181 -305 0 -73 181c-2,3 -4,6 -7,8 -2,2 -6,4 -10,4l-34 0 254 -623 45 0 255 623zm-417 -226l279 0 -127 -314c-2,-5 -4,-11 -6,-17 -2,-6 -4,-13 -6,-20 -2,7 -4,14 -6,20 -3,6 -5,12 -7,17l-127 314zm794 -157c-2,4 -5,6 -10,6 -3,0 -7,-2 -12,-6 -5,-4 -12,-8 -20,-12 -9,-5 -19,-9 -31,-13 -12,-3 -27,-5 -45,-5 -16,0 -30,2 -43,7 -13,4 -24,11 -33,18 -10,8 -17,17 -22,27 -5,10 -8,20 -8,31 0,14 4,26 11,35 7,9 16,17 27,23 12,6 25,12 39,17 15,4 29,9 45,14 15,4 30,9 44,15 15,6 27,13 39,22 11,8 20,18 27,31 7,12 11,27 11,45 0,19 -3,36 -10,53 -7,16 -17,31 -30,43 -13,12 -29,21 -48,28 -19,7 -41,11 -65,11 -30,0 -57,-5 -79,-15 -22,-10 -42,-23 -60,-39l10 -15c2,-2 4,-4 5,-5 2,-1 5,-2 8,-2 3,0 8,3 14,7 5,5 12,10 21,16 9,5 20,10 34,15 13,5 29,7 49,7 18,0 34,-3 48,-8 14,-5 26,-12 35,-21 9,-9 16,-19 21,-31 5,-12 7,-24 7,-38 0,-14 -3,-26 -10,-36 -7,-10 -16,-18 -28,-25 -11,-6 -24,-12 -38,-17 -15,-5 -30,-9 -45,-14 -15,-5 -30,-10 -45,-16 -14,-5 -27,-12 -38,-21 -12,-8 -21,-19 -28,-31 -7,-12 -10,-27 -10,-45 0,-16 3,-31 10,-45 6,-14 16,-27 29,-38 12,-11 27,-19 45,-26 18,-6 38,-9 60,-9 27,0 51,3 71,11 21,8 40,20 57,36l-9 15zm437 0c-2,4 -6,6 -10,6 -3,0 -7,-2 -12,-6 -6,-4 -12,-8 -21,-12 -8,-5 -18,-9 -30,-13 -13,-3 -28,-5 -45,-5 -16,0 -30,2 -43,7 -13,4 -25,11 -34,18 -9,8 -16,17 -21,27 -6,10 -8,20 -8,31 0,14 3,26 10,35 7,9 17,17 28,23 11,6 24,12 39,17 14,4 29,9 44,14 15,4 30,9 45,15 14,6 27,13 39,22 11,8 20,18 27,31 7,12 11,27 11,45 0,19 -4,36 -11,53 -7,16 -16,31 -29,43 -13,12 -29,21 -48,28 -19,7 -41,11 -65,11 -31,0 -57,-5 -79,-15 -23,-10 -42,-23 -60,-39l10 -15c2,-2 3,-4 5,-5 2,-1 4,-2 7,-2 4,0 9,3 14,7 6,5 13,10 22,16 9,5 20,10 33,15 13,5 30,7 49,7 19,0 35,-3 49,-8 14,-5 25,-12 35,-21 9,-9 16,-19 21,-31 5,-12 7,-24 7,-38 0,-14 -3,-26 -11,-36 -6,-10 -16,-18 -27,-25 -11,-6 -24,-12 -39,-17 -14,-5 -29,-9 -44,-14 -16,-5 -31,-10 -45,-16 -14,-5 -27,-12 -39,-21 -11,-8 -20,-19 -27,-31 -7,-12 -11,-27 -11,-45 0,-16 4,-31 10,-45 7,-14 17,-27 29,-38 13,-11 28,-19 46,-26 18,-6 38,-9 60,-9 27,0 50,3 71,11 21,8 40,20 57,36l-9 15zm362 -62c31,0 59,5 84,16 25,10 46,26 63,45 17,20 30,44 38,71 9,28 14,59 14,94 0,34 -5,65 -14,93 -8,27 -21,51 -38,71 -17,19 -38,34 -63,45 -25,11 -53,16 -84,16 -31,0 -60,-5 -84,-16 -25,-11 -46,-26 -63,-45 -17,-20 -30,-44 -39,-71 -9,-28 -14,-59 -14,-93 0,-35 5,-66 14,-94 9,-27 22,-51 39,-71 17,-19 38,-35 63,-45 24,-11 53,-16 84,-16zm0 418c26,0 49,-4 69,-13 19,-9 35,-22 48,-39 14,-17 23,-37 30,-61 6,-23 10,-50 10,-79 0,-30 -4,-56 -10,-80 -7,-24 -16,-44 -30,-61 -13,-17 -29,-30 -48,-39 -20,-9 -43,-14 -69,-14 -26,0 -49,5 -69,14 -20,9 -36,22 -49,39 -13,17 -23,37 -29,61 -7,24 -10,50 -10,80 0,29 3,56 10,79 6,24 16,44 29,61 13,17 29,30 49,39 20,9 43,13 69,13zm655 -353c-2,1 -3,2 -4,3 -2,1 -3,2 -6,2 -3,0 -7,-2 -12,-6 -5,-4 -12,-8 -20,-13 -9,-5 -19,-9 -32,-13 -13,-4 -28,-6 -47,-6 -25,0 -47,5 -67,14 -19,9 -36,21 -49,38 -13,17 -24,37 -31,61 -7,24 -10,51 -10,81 0,31 4,58 11,82 7,24 17,44 30,60 13,16 29,29 48,37 19,9 40,13 63,13 21,0 38,-2 53,-7 14,-5 26,-11 35,-17 9,-5 16,-11 22,-16 5,-5 10,-7 13,-7 4,0 7,1 9,4l11 14c-7,9 -15,17 -26,25 -10,7 -21,14 -34,19 -13,6 -27,10 -42,13 -15,3 -31,5 -48,5 -27,0 -53,-5 -76,-15 -23,-11 -43,-25 -59,-44 -17,-20 -29,-43 -39,-71 -9,-28 -13,-60 -13,-95 0,-34 4,-64 13,-92 8,-28 21,-51 38,-71 17,-20 37,-36 62,-47 24,-11 52,-16 84,-16 29,0 54,4 76,13 22,9 41,21 58,37l-11 15zm225 -58l0 438 -42 0 0 -438 42 0zm19 -151c0,5 -1,10 -4,14 -2,5 -5,9 -8,13 -4,3 -8,6 -12,8 -5,2 -10,3 -15,3 -6,0 -11,-1 -16,-3 -4,-2 -8,-5 -12,-8 -4,-4 -6,-8 -8,-13 -2,-4 -3,-9 -3,-14 0,-6 1,-11 3,-16 2,-4 4,-8 8,-12 4,-4 8,-6 12,-8 5,-2 10,-3 16,-3 5,0 10,1 15,3 4,2 8,4 12,8 3,4 6,8 8,12 3,5 4,10 4,16zm474 589c-9,0 -15,-4 -17,-13l-6 -56c-12,12 -24,23 -36,32 -12,10 -24,17 -37,24 -13,6 -27,11 -42,15 -15,3 -31,5 -49,5 -15,0 -29,-3 -43,-7 -14,-4 -27,-11 -38,-20 -10,-9 -19,-21 -26,-35 -6,-14 -10,-31 -10,-51 0,-18 6,-35 16,-51 11,-16 27,-30 50,-41 22,-12 51,-21 86,-28 35,-7 78,-12 127,-13l0 -46c0,-40 -8,-71 -26,-93 -17,-22 -43,-33 -77,-33 -21,0 -39,3 -54,9 -15,5 -27,12 -37,19 -11,7 -19,13 -25,19 -7,6 -12,9 -17,9 -5,0 -10,-3 -13,-8l-7 -13c23,-22 47,-40 72,-52 25,-12 54,-17 86,-17 23,0 43,3 61,11 18,7 32,18 44,32 11,14 20,31 26,50 6,20 9,42 9,67l0 285 -17 0zm-176 -24c17,0 32,-2 47,-6 14,-3 27,-8 39,-15 12,-7 24,-14 34,-23 11,-9 21,-19 31,-30l0 -113c-41,1 -77,4 -107,9 -30,5 -55,12 -74,21 -20,9 -34,19 -43,31 -10,12 -14,26 -14,42 0,14 2,27 7,38 5,10 11,19 19,26 8,7 17,12 28,15 10,3 21,5 33,5zm502 31c-29,0 -53,-9 -69,-25 -17,-16 -25,-42 -25,-76l0 -299 -63 0c-3,0 -6,-1 -8,-2 -2,-2 -3,-5 -3,-8l0 -17 75 -5 10 -156c1,-3 2,-5 4,-7 2,-2 4,-4 7,-4l20 0 0 168 138 0 0 31 -138 0 0 297c0,12 2,22 5,31 3,8 7,16 13,21 5,6 11,10 19,12 7,3 15,4 23,4 11,0 20,-1 28,-4 7,-3 14,-7 20,-10 5,-4 10,-7 13,-11 4,-3 6,-4 9,-4 2,0 4,1 7,4l11 19c-11,12 -25,22 -42,29 -18,8 -35,12 -54,12zm307 -445l0 438 -42 0 0 -438 42 0zm18 -151c0,5 -1,10 -3,14 -2,5 -5,9 -8,13 -4,3 -8,6 -13,8 -5,2 -10,3 -15,3 -5,0 -10,-1 -15,-3 -5,-2 -9,-5 -12,-8 -4,-4 -7,-8 -9,-13 -2,-4 -3,-9 -3,-14 0,-6 1,-11 3,-16 2,-4 5,-8 9,-12 3,-4 7,-6 12,-8 5,-2 10,-3 15,-3 5,0 10,1 15,3 5,2 9,4 13,8 3,4 6,8 8,12 2,5 3,10 3,16zm362 144c31,0 59,5 84,16 25,10 46,26 62,45 17,20 30,44 39,71 9,28 14,59 14,94 0,34 -5,65 -14,93 -9,27 -22,51 -39,71 -16,19 -37,34 -62,45 -25,11 -53,16 -84,16 -32,0 -60,-5 -84,-16 -25,-11 -46,-26 -63,-45 -17,-20 -30,-44 -39,-71 -9,-28 -14,-59 -14,-93 0,-35 5,-66 14,-94 9,-27 22,-51 39,-71 17,-19 38,-35 63,-45 24,-11 52,-16 84,-16zm0 418c26,0 49,-4 68,-13 20,-9 36,-22 49,-39 14,-17 23,-37 30,-61 6,-23 10,-50 10,-79 0,-30 -4,-56 -10,-80 -7,-24 -16,-44 -30,-61 -13,-17 -29,-30 -49,-39 -19,-9 -42,-14 -68,-14 -26,0 -49,5 -69,14 -20,9 -36,22 -49,39 -13,17 -23,37 -30,61 -6,24 -10,50 -10,80 0,29 4,56 10,79 7,24 17,44 30,61 13,17 29,30 49,39 20,9 43,13 69,13zm367 27l0 -438 24 0c7,0 12,3 13,11l4 66c19,-26 43,-46 69,-61 27,-16 56,-23 89,-23 24,0 45,3 63,11 18,8 34,19 46,33 12,14 21,32 27,52 6,20 9,43 9,69l0 280 -42 0 0 -281c0,-41 -10,-73 -28,-97 -19,-23 -48,-35 -86,-35 -29,0 -55,8 -80,22 -24,15 -46,36 -66,61l0 330 -42 0z"/>
  </g>
 </g>
</svg>
